Coordinates
version=1
nRows=60
nColumns=12
inDegrees=yes

Units are S.I. units (second, meters, Newtons, ...)
Angles are in degrees

endheader
time	SC_y	SC_z	SC_x	AC_y	AC_z	AC_x	GH_y	GH_z	GH_yy	EL_x	PS_y
       0.0              -47.49          9.402          15.03           51.9          1.763         -6.356          109.2          13.94          112.6          26.96          128.3
   0.02742              -47.49          9.405          15.03           51.9          1.762         -6.353          109.2          13.94          112.5          26.97          128.2
   0.05484              -47.49          9.408          15.04           51.9          1.762         -6.349          109.2          13.94          112.5          26.98          128.2
   0.08226              -47.48           9.41          15.05           51.9          1.762         -6.345          109.1          13.95          112.5          26.99          128.2
    0.1097              -47.47          9.413          15.06           51.9          1.762          -6.34          109.1          13.95          112.4           27.0          128.2
    0.1371              -47.47          9.416          15.07           51.9          1.762         -6.336          109.1          13.95          112.4          27.01          128.2
    0.1645              -47.46           9.42          15.08           51.9          1.762         -6.331          109.1          13.96          112.4          27.02          128.2
    0.1919              -47.46          9.423          15.09          51.91          1.762         -6.326          109.1          13.96          112.3          27.04          128.2
    0.2194              -47.45          9.427           15.1          51.91          1.762          -6.32          109.1          13.97          112.3          27.05          128.1
    0.2468              -47.44          9.431          15.11          51.91          1.762         -6.314          109.1          13.97          112.2          27.07          128.1
    0.2742              -47.43          9.435          15.12          51.91          1.761         -6.308          109.0          13.98          112.2          27.08          128.1
    0.3016              -47.42           9.44          15.14          51.91          1.761         -6.301          109.0          13.99          112.1           27.1          128.1
     0.329              -47.41          9.445          15.15          51.91          1.761         -6.293          109.0          13.99          112.0          27.12          128.0
    0.3565               -47.4          9.451          15.17          51.91          1.761         -6.285          109.0           14.0          112.0          27.14          128.0
    0.3839              -47.39          9.457          15.18          51.91          1.761         -6.277          109.0          14.01          111.9          27.16          128.0
    0.4113              -47.38          9.463           15.2          51.92          1.761         -6.267          108.9          14.02          111.8          27.19          128.0
    0.4387              -47.37           9.47          15.22          51.92           1.76         -6.257          108.9          14.02          111.7          27.21          127.9
    0.4661              -47.35          9.478          15.24          51.92           1.76         -6.246          108.9          14.03          111.7          27.24          127.9
    0.4936              -47.34          9.486          15.27          51.92           1.76         -6.233          108.8          14.05          111.6          27.27          127.8
     0.521              -47.32          9.495           15.3          51.92          1.759          -6.22          108.8          14.06          111.4          27.31          127.8
    0.5484               -47.3          9.505          15.32          51.93          1.759         -6.205          108.8          14.07          111.3          27.34          127.7
    0.5758              -47.28          9.517          15.36          51.93          1.759         -6.189          108.7          14.09          111.2          27.39          127.7
    0.6032              -47.26          9.529          15.39          51.93          1.758         -6.171          108.7           14.1          111.0          27.43          127.6
    0.6307              -47.23          9.542          15.43          51.93          1.758         -6.151          108.6          14.12          110.9          27.48          127.6
    0.6581               -47.2          9.557          15.47          51.94          1.757         -6.129          108.5          14.14          110.7          27.54          127.5
    0.6855              -47.17          9.574          15.52          51.94          1.757         -6.105          108.5          14.16          110.5           27.6          127.4
    0.7129              -47.14          9.593          15.58          51.95          1.756         -6.077          108.4          14.19          110.3          27.67          127.3
    0.7403               -47.1          9.614          15.64          51.95          1.755         -6.046          108.3          14.21          110.0          27.75          127.2
    0.7678              -47.05          9.638          15.71          51.96          1.755         -6.011          108.2          14.24          109.7          27.84          127.1
    0.7952               -47.0          9.665          15.78          51.97          1.754         -5.971          108.1          14.28          109.4          27.94          127.0
    0.8226              -46.94          9.696          15.87          51.97          1.753         -5.926          108.0          14.32          109.0          28.06          126.8
      0.85              -46.88          9.732          15.98          51.98          1.751         -5.874          107.8          14.37          108.6          28.19          126.6
    0.8774               -46.8          9.773          16.09          51.99           1.75         -5.814          107.6          14.42          108.1          28.34          126.4
    0.9049              -46.71           9.82          16.23           52.0          1.748         -5.744          107.4          14.48          107.5          28.52          126.2
    0.9323              -46.61          9.876          16.39          52.02          1.747         -5.662          107.2          14.56          106.8          28.73          125.9
    0.9597              -46.48          9.942          16.58          52.03          1.744         -5.566          106.9          14.64          106.0          28.98          125.6
    0.9871              -46.34          10.02          16.81          52.05          1.742         -5.452          106.6          14.75          105.1          29.27          125.2
     1.015              -46.16          10.11          17.08          52.08          1.739         -5.314          106.2          14.87          103.9          29.62          124.8
     1.042              -45.95          10.23           17.4           52.1          1.735         -5.148          105.7          15.02          102.6          30.04          124.2
     1.069              -45.69          10.37           17.8          52.14           1.73         -4.946          105.2           15.2          100.9          30.56          123.5
     1.097              -45.37          10.54           18.3          52.18          1.724         -4.695          104.5          15.42           98.8           31.2          122.7
     1.124              -44.97          10.75          18.91          52.23          1.717         -4.383          103.6           15.7          96.21           32.0          121.6
     1.152              -44.46          11.02          19.68           52.3          1.708          -3.99          102.4          16.05          92.95           33.0          120.3
     1.179              -43.82          11.36          20.67          52.39          1.697         -3.491          101.0           16.5           88.8          34.28          118.6
     1.206               -43.0           11.8          21.93          52.49          1.682         -2.851           99.2          17.07           83.5          35.91          116.5
     1.234              -41.95          12.36          23.54          52.63          1.663          -2.03          96.86          17.81          76.69          38.01          113.7
     1.261              -40.61          13.07          25.61          52.81          1.639        -0.9815          93.87          18.75          67.99          40.69          110.2
     1.289              -38.92          13.97           28.2          53.03          1.609          0.337          90.12          19.93          57.06          44.06          105.8
     1.316              -36.86          15.07          31.37           53.3          1.572          1.944          85.54          21.37          43.73          48.16          100.4
     1.344              -34.47          16.34          35.03          53.62          1.529          3.806          80.24          23.03          28.29          52.92          94.14
     1.371              -31.89          17.72           39.0          53.96          1.482          5.822           74.5          24.84          11.56          58.07          87.37
     1.398               -29.3          19.09          42.97           54.3          1.436          7.839          68.75          26.65         -5.163          63.22           80.6
     1.426              -26.92          20.37          46.64          54.62          1.393          9.701          63.45          28.31         -20.61          67.97          74.34
     1.453              -24.86          21.46           49.8          54.89          1.356          11.31          58.87          29.75         -33.93          72.08          68.95
     1.481              -23.17          22.36           52.4          55.11          1.326          12.63          55.12          30.93         -44.87          75.45          64.52
     1.508              -21.83          23.08          54.46          55.29          1.301          13.67          52.13          31.87         -53.57          78.12           61.0
     1.536              -20.77          23.64          56.08          55.43          1.283           14.5          49.79          32.61         -60.37          80.22          58.25
     1.563              -19.95          24.08          57.34          55.54          1.268          15.14          47.97          33.18         -65.68          81.85           56.1
      1.59              -19.31          24.42          58.32          55.62          1.256          15.64          46.55          33.63         -69.82          83.13          54.42
     1.618              -18.81          24.69           59.1          55.69          1.247          16.03          45.43          33.98         -73.08          84.14           53.1
